<svg xmlns="http://www.w3.org/2000/svg" viewBox="0 0 576 512" fill="white">
  <path d="M560 224h-30.7C528.2 210.1 544 181.5 544 144c0-79.5-70.6-144-160-144-75 0-137.9 44.1-154.5 103.2C201.6 103.1 189.3 104 177 104c-37.3 0-70.5-13.3-93.5-34.6-6.3-5.9-16.4-5.5-22.2.9l-22.2 23.4c-5.6 5.9-5.4 15.1.5 20.7 17.7 16.3 39.5 29.2 63.4 37.4C99.2 180.4 96 197.8 96 216c0 10.7 1.2 21.2 3.5 31.3-35.8 16.2-67.6 42.6-88.1 76.1-6.6 10.9-10.4 23.5-11.4 36.6C-.4 388.6 12.7 400 28 400h72c0 61.9 50.1 112 112 112h192c61.9 0 112-50.1 112-112h40c8.8 0 16-7.2 16-16v-16c0-30.9-25.1-56-56-56zM416 64c44.2 0 80 35.8 80 80 0 34.6-21.9 64-48 64h-48c-26.5 0-48-21.5-48-48 0-6.5 1.3-12.7 3.7-18.4C366.3 98.8 389.6 64 416 64zm-48 336c0 8.8-7.2 16-16 16H224c-8.8 0-16-7.2-16-16v-16c0-8.8 7.2-16 16-16h128c8.8 0 16 7.2 16 16v16z"/>
</svg>