<svg viewBox="0 0 640 512" xmlns="http://www.w3.org/2000/svg">
  <path fill="white" d="M320 384c-17.7 0-32 14.3-32 32s14.3 32 32 32 32-14.3 32-32-14.3-32-32-32zm134.4-16c-7.8 7.8-20.5 7.8-28.3 0-27.4-27.4-64.1-44-106.1-44s-78.7 16.6-106.1 44c-7.8 7.8-20.5 7.8-28.3 0s-7.8-20.5 0-28.3c34.4-34.4 82.2-55.7 134.4-55.7s100 21.3 134.4 55.7c7.8 7.8 7.8 20.5 0 28.3zm99.3-99.3c-7.8 7.8-20.5 7.8-28.3 0-47.8-47.8-113.2-77.3-185.3-77.3s-137.5 29.5-185.3 77.3c-7.8 7.8-20.5 7.8-28.3 0s-7.8-20.5 0-28.3c57.1-57.1 135.3-92.7 213.6-92.7s156.5 35.6 213.6 92.7c7.8 7.8 7.8 20.5 0 28.3zm99.3-99.3c-7.8 7.8-20.5 7.8-28.3 0C480.7 125.7 403.5 96 320 96s-160.7 29.7-224.7 83.3c-7.8 7.8-20.5 7.8-28.3 0s-7.8-20.5 0-28.3C139.2 91.6 226.4 64 320 64s180.8 27.6 253 87.1c7.8 7.8 7.8 20.5 0 28.3z"></path>
</svg>